<mxfile host="app.diagrams.net" modified="2024-05-29T17:28:41.624Z" agent="Mozilla/5.0 (Windows NT 10.0; Win64; x64) AppleWebKit/537.36 (KHTML, like Gecko) Chrome/125.0.0.0 Safari/537.36" etag="phY_0A3k-KSZUQgf1ODi" version="24.4.9" type="github">
  <diagram name="Page-1" id="znpa9NBMzFoS2YleKbPP">
    <mxGraphModel dx="3473" dy="4063" grid="1" gridSize="10" guides="1" tooltips="1" connect="1" arrows="1" fold="1" page="1" pageScale="1" pageWidth="850" pageHeight="1100" math="0" shadow="0">
      <root>
        <mxCell id="0" />
        <mxCell id="1" parent="0" />
        <mxCell id="KK_OaHmrvpVo3a35yFaE-13" value="Amazon S3" style="sketch=0;outlineConnect=0;fontColor=#232F3E;gradientColor=none;strokeColor=#ffffff;fillColor=#232F3E;dashed=0;verticalLabelPosition=middle;verticalAlign=bottom;align=center;html=1;whiteSpace=wrap;fontSize=10;fontStyle=1;spacing=3;shape=mxgraph.aws4.productIcon;prIcon=mxgraph.aws4.s3;" vertex="1" parent="1">
          <mxGeometry x="258" y="-298" width="80" height="100" as="geometry" />
        </mxCell>
        <mxCell id="KK_OaHmrvpVo3a35yFaE-17" value="Amazon RDS" style="sketch=0;outlineConnect=0;fontColor=#232F3E;gradientColor=none;strokeColor=#ffffff;fillColor=#232F3E;dashed=0;verticalLabelPosition=middle;verticalAlign=bottom;align=center;html=1;whiteSpace=wrap;fontSize=10;fontStyle=1;spacing=3;shape=mxgraph.aws4.productIcon;prIcon=mxgraph.aws4.rds;" vertex="1" parent="1">
          <mxGeometry x="380" y="-298" width="80" height="100" as="geometry" />
        </mxCell>
        <mxCell id="KK_OaHmrvpVo3a35yFaE-18" value="AWS Lambda" style="sketch=0;outlineConnect=0;fontColor=#232F3E;gradientColor=none;strokeColor=#ffffff;fillColor=#232F3E;dashed=0;verticalLabelPosition=middle;verticalAlign=bottom;align=center;html=1;whiteSpace=wrap;fontSize=10;fontStyle=1;spacing=3;shape=mxgraph.aws4.productIcon;prIcon=mxgraph.aws4.lambda;" vertex="1" parent="1">
          <mxGeometry x="500" y="-298" width="80" height="100" as="geometry" />
        </mxCell>
        <mxCell id="KK_OaHmrvpVo3a35yFaE-28" value="devices" style="sketch=0;outlineConnect=0;gradientColor=none;fontColor=#545B64;strokeColor=none;fillColor=#879196;dashed=0;verticalLabelPosition=bottom;verticalAlign=top;align=center;html=1;fontSize=12;fontStyle=0;aspect=fixed;shape=mxgraph.aws4.illustration_devices;pointerEvents=1" vertex="1" parent="1">
          <mxGeometry x="20" y="-380" width="100" height="73" as="geometry" />
        </mxCell>
        <mxCell id="KK_OaHmrvpVo3a35yFaE-30" value="Amazon DynamoDB" style="sketch=0;outlineConnect=0;fontColor=#232F3E;gradientColor=none;strokeColor=#ffffff;fillColor=#232F3E;dashed=0;verticalLabelPosition=middle;verticalAlign=bottom;align=center;html=1;whiteSpace=wrap;fontSize=10;fontStyle=1;spacing=3;shape=mxgraph.aws4.productIcon;prIcon=mxgraph.aws4.dynamodb;" vertex="1" parent="1">
          <mxGeometry x="370" y="-450" width="80" height="110" as="geometry" />
        </mxCell>
        <mxCell id="KK_OaHmrvpVo3a35yFaE-39" value="" style="group" vertex="1" connectable="0" parent="1">
          <mxGeometry x="470" y="440" width="110" height="118" as="geometry" />
        </mxCell>
        <mxCell id="KK_OaHmrvpVo3a35yFaE-15" value="" style="sketch=0;points=[[0,0,0],[0.25,0,0],[0.5,0,0],[0.75,0,0],[1,0,0],[0,1,0],[0.25,1,0],[0.5,1,0],[0.75,1,0],[1,1,0],[0,0.25,0],[0,0.5,0],[0,0.75,0],[1,0.25,0],[1,0.5,0],[1,0.75,0]];outlineConnect=0;fontColor=#232F3E;fillColor=#ED7100;strokeColor=#ffffff;dashed=0;verticalLabelPosition=bottom;verticalAlign=top;align=center;html=1;fontSize=12;fontStyle=0;aspect=fixed;shape=mxgraph.aws4.resourceIcon;resIcon=mxgraph.aws4.lambda;" vertex="1" parent="KK_OaHmrvpVo3a35yFaE-39">
          <mxGeometry x="16" width="78" height="78" as="geometry" />
        </mxCell>
        <mxCell id="KK_OaHmrvpVo3a35yFaE-37" value="&lt;font style=&quot;font-size: 18px;&quot;&gt;postMovie&lt;/font&gt;" style="text;html=1;align=center;verticalAlign=middle;resizable=0;points=[];autosize=1;strokeColor=none;fillColor=none;" vertex="1" parent="KK_OaHmrvpVo3a35yFaE-39">
          <mxGeometry y="78" width="110" height="40" as="geometry" />
        </mxCell>
        <mxCell id="KK_OaHmrvpVo3a35yFaE-40" value="" style="group" vertex="1" connectable="0" parent="1">
          <mxGeometry x="440" y="1020" width="150" height="118" as="geometry" />
        </mxCell>
        <mxCell id="KK_OaHmrvpVo3a35yFaE-34" value="" style="sketch=0;points=[[0,0,0],[0.25,0,0],[0.5,0,0],[0.75,0,0],[1,0,0],[0,1,0],[0.25,1,0],[0.5,1,0],[0.75,1,0],[1,1,0],[0,0.25,0],[0,0.5,0],[0,0.75,0],[1,0.25,0],[1,0.5,0],[1,0.75,0]];outlineConnect=0;fontColor=#232F3E;fillColor=#ED7100;strokeColor=#ffffff;dashed=0;verticalLabelPosition=bottom;verticalAlign=top;align=center;html=1;fontSize=12;fontStyle=0;aspect=fixed;shape=mxgraph.aws4.resourceIcon;resIcon=mxgraph.aws4.lambda;" vertex="1" parent="KK_OaHmrvpVo3a35yFaE-40">
          <mxGeometry x="36" width="78" height="78" as="geometry" />
        </mxCell>
        <mxCell id="KK_OaHmrvpVo3a35yFaE-38" value="&lt;font style=&quot;font-size: 18px;&quot;&gt;downloadMovie&lt;/font&gt;" style="text;html=1;align=center;verticalAlign=middle;resizable=0;points=[];autosize=1;strokeColor=none;fillColor=none;" vertex="1" parent="KK_OaHmrvpVo3a35yFaE-40">
          <mxGeometry y="78" width="150" height="40" as="geometry" />
        </mxCell>
        <mxCell id="KK_OaHmrvpVo3a35yFaE-41" value="" style="group" vertex="1" connectable="0" parent="1">
          <mxGeometry x="-130" y="790" width="130" height="118" as="geometry" />
        </mxCell>
        <mxCell id="KK_OaHmrvpVo3a35yFaE-32" value="" style="sketch=0;points=[[0,0,0],[0.25,0,0],[0.5,0,0],[0.75,0,0],[1,0,0],[0,1,0],[0.25,1,0],[0.5,1,0],[0.75,1,0],[1,1,0],[0,0.25,0],[0,0.5,0],[0,0.75,0],[1,0.25,0],[1,0.5,0],[1,0.75,0]];outlineConnect=0;fontColor=#232F3E;fillColor=#8C4FFF;strokeColor=#ffffff;dashed=0;verticalLabelPosition=bottom;verticalAlign=top;align=center;html=1;fontSize=12;fontStyle=0;aspect=fixed;shape=mxgraph.aws4.resourceIcon;resIcon=mxgraph.aws4.api_gateway;" vertex="1" parent="KK_OaHmrvpVo3a35yFaE-41">
          <mxGeometry x="26" width="78" height="78" as="geometry" />
        </mxCell>
        <mxCell id="KK_OaHmrvpVo3a35yFaE-36" value="&lt;font style=&quot;font-size: 18px;&quot;&gt;API Gateway&lt;/font&gt;" style="text;html=1;align=center;verticalAlign=middle;resizable=0;points=[];autosize=1;strokeColor=none;fillColor=none;" vertex="1" parent="KK_OaHmrvpVo3a35yFaE-41">
          <mxGeometry y="78" width="130" height="40" as="geometry" />
        </mxCell>
        <mxCell id="KK_OaHmrvpVo3a35yFaE-42" value="" style="group" vertex="1" connectable="0" parent="1">
          <mxGeometry x="-110" y="360" width="90" height="118" as="geometry" />
        </mxCell>
        <mxCell id="KK_OaHmrvpVo3a35yFaE-31" value="" style="sketch=0;points=[[0,0,0],[0.25,0,0],[0.5,0,0],[0.75,0,0],[1,0,0],[0,1,0],[0.25,1,0],[0.5,1,0],[0.75,1,0],[1,1,0],[0,0.25,0],[0,0.5,0],[0,0.75,0],[1,0.25,0],[1,0.5,0],[1,0.75,0]];outlineConnect=0;fontColor=#232F3E;fillColor=#DD344C;strokeColor=#ffffff;dashed=0;verticalLabelPosition=bottom;verticalAlign=top;align=center;html=1;fontSize=12;fontStyle=0;aspect=fixed;shape=mxgraph.aws4.resourceIcon;resIcon=mxgraph.aws4.cognito;" vertex="1" parent="KK_OaHmrvpVo3a35yFaE-42">
          <mxGeometry x="6" width="78" height="78" as="geometry" />
        </mxCell>
        <mxCell id="KK_OaHmrvpVo3a35yFaE-35" value="&lt;font style=&quot;font-size: 18px;&quot;&gt;Cognito&lt;/font&gt;" style="text;html=1;align=center;verticalAlign=middle;resizable=0;points=[];autosize=1;strokeColor=none;fillColor=none;" vertex="1" parent="KK_OaHmrvpVo3a35yFaE-42">
          <mxGeometry y="78" width="90" height="40" as="geometry" />
        </mxCell>
        <mxCell id="KK_OaHmrvpVo3a35yFaE-45" value="" style="group" vertex="1" connectable="0" parent="1">
          <mxGeometry x="1160" y="-80" width="110" height="118" as="geometry" />
        </mxCell>
        <mxCell id="KK_OaHmrvpVo3a35yFaE-16" value="" style="sketch=0;points=[[0,0,0],[0.25,0,0],[0.5,0,0],[0.75,0,0],[1,0,0],[0,1,0],[0.25,1,0],[0.5,1,0],[0.75,1,0],[1,1,0],[0,0.25,0],[0,0.5,0],[0,0.75,0],[1,0.25,0],[1,0.5,0],[1,0.75,0]];outlineConnect=0;fontColor=#232F3E;fillColor=#C925D1;strokeColor=#ffffff;dashed=0;verticalLabelPosition=bottom;verticalAlign=top;align=center;html=1;fontSize=12;fontStyle=0;aspect=fixed;shape=mxgraph.aws4.resourceIcon;resIcon=mxgraph.aws4.rds;" vertex="1" parent="KK_OaHmrvpVo3a35yFaE-45">
          <mxGeometry x="16" width="78" height="78" as="geometry" />
        </mxCell>
        <mxCell id="KK_OaHmrvpVo3a35yFaE-44" value="&lt;span style=&quot;font-size: 18px;&quot;&gt;RDS&lt;/span&gt;" style="text;html=1;align=center;verticalAlign=middle;resizable=0;points=[];autosize=1;strokeColor=none;fillColor=none;" vertex="1" parent="KK_OaHmrvpVo3a35yFaE-45">
          <mxGeometry x="25" y="78" width="60" height="40" as="geometry" />
        </mxCell>
        <mxCell id="KK_OaHmrvpVo3a35yFaE-46" value="" style="group" vertex="1" connectable="0" parent="1">
          <mxGeometry x="936" y="610" width="78" height="118" as="geometry" />
        </mxCell>
        <mxCell id="KK_OaHmrvpVo3a35yFaE-14" value="" style="sketch=0;points=[[0,0,0],[0.25,0,0],[0.5,0,0],[0.75,0,0],[1,0,0],[0,1,0],[0.25,1,0],[0.5,1,0],[0.75,1,0],[1,1,0],[0,0.25,0],[0,0.5,0],[0,0.75,0],[1,0.25,0],[1,0.5,0],[1,0.75,0]];outlineConnect=0;fontColor=#232F3E;fillColor=#7AA116;strokeColor=#ffffff;dashed=0;verticalLabelPosition=bottom;verticalAlign=top;align=center;html=1;fontSize=12;fontStyle=0;aspect=fixed;shape=mxgraph.aws4.resourceIcon;resIcon=mxgraph.aws4.s3;" vertex="1" parent="KK_OaHmrvpVo3a35yFaE-46">
          <mxGeometry width="78" height="78" as="geometry" />
        </mxCell>
        <mxCell id="KK_OaHmrvpVo3a35yFaE-43" value="&lt;span style=&quot;font-size: 18px;&quot;&gt;S3&lt;/span&gt;" style="text;html=1;align=center;verticalAlign=middle;resizable=0;points=[];autosize=1;strokeColor=none;fillColor=none;" vertex="1" parent="KK_OaHmrvpVo3a35yFaE-46">
          <mxGeometry x="14" y="78" width="50" height="40" as="geometry" />
        </mxCell>
        <mxCell id="KK_OaHmrvpVo3a35yFaE-48" value="" style="group" vertex="1" connectable="0" parent="1">
          <mxGeometry x="-480" y="790" width="78" height="118" as="geometry" />
        </mxCell>
        <mxCell id="KK_OaHmrvpVo3a35yFaE-19" value="" style="sketch=0;outlineConnect=0;fontColor=#232F3E;gradientColor=none;fillColor=#232F3D;strokeColor=none;dashed=0;verticalLabelPosition=bottom;verticalAlign=top;align=center;html=1;fontSize=12;fontStyle=0;aspect=fixed;pointerEvents=1;shape=mxgraph.aws4.users;" vertex="1" parent="KK_OaHmrvpVo3a35yFaE-48">
          <mxGeometry width="78" height="78" as="geometry" />
        </mxCell>
        <mxCell id="KK_OaHmrvpVo3a35yFaE-47" value="&lt;span style=&quot;font-size: 18px;&quot;&gt;Users&lt;/span&gt;" style="text;html=1;align=center;verticalAlign=middle;resizable=0;points=[];autosize=1;strokeColor=none;fillColor=none;" vertex="1" parent="KK_OaHmrvpVo3a35yFaE-48">
          <mxGeometry x="4" y="78" width="70" height="40" as="geometry" />
        </mxCell>
        <mxCell id="KK_OaHmrvpVo3a35yFaE-66" value="" style="edgeStyle=orthogonalEdgeStyle;html=1;endArrow=block;elbow=vertical;startArrow=block;startFill=1;endFill=1;strokeColor=#545B64;rounded=0;entryX=0.5;entryY=0;entryDx=0;entryDy=0;entryPerimeter=0;" edge="1" parent="1" target="KK_OaHmrvpVo3a35yFaE-32">
          <mxGeometry width="100" relative="1" as="geometry">
            <mxPoint x="-65" y="480" as="sourcePoint" />
            <mxPoint x="150" y="610" as="targetPoint" />
          </mxGeometry>
        </mxCell>
        <mxCell id="KK_OaHmrvpVo3a35yFaE-67" value="" style="edgeStyle=orthogonalEdgeStyle;html=1;endArrow=block;elbow=vertical;startArrow=block;startFill=1;endFill=1;strokeColor=#545B64;rounded=0;exitX=0;exitY=0.5;exitDx=0;exitDy=0;exitPerimeter=0;" edge="1" parent="1" source="KK_OaHmrvpVo3a35yFaE-31" target="KK_OaHmrvpVo3a35yFaE-19">
          <mxGeometry width="100" relative="1" as="geometry">
            <mxPoint x="-210" y="450" as="sourcePoint" />
            <mxPoint x="-210" y="760" as="targetPoint" />
          </mxGeometry>
        </mxCell>
        <mxCell id="KK_OaHmrvpVo3a35yFaE-68" value="" style="edgeStyle=orthogonalEdgeStyle;html=1;endArrow=block;elbow=vertical;startArrow=block;startFill=1;endFill=1;strokeColor=#545B64;rounded=0;entryX=0;entryY=0.5;entryDx=0;entryDy=0;entryPerimeter=0;" edge="1" parent="1" source="KK_OaHmrvpVo3a35yFaE-19" target="KK_OaHmrvpVo3a35yFaE-32">
          <mxGeometry width="100" relative="1" as="geometry">
            <mxPoint x="-280" y="930" as="sourcePoint" />
            <mxPoint x="-280" y="620" as="targetPoint" />
          </mxGeometry>
        </mxCell>
        <mxCell id="KK_OaHmrvpVo3a35yFaE-69" value="" style="edgeStyle=orthogonalEdgeStyle;html=1;endArrow=block;elbow=vertical;startArrow=block;startFill=1;endFill=1;strokeColor=#545B64;rounded=0;entryX=1;entryY=0.25;entryDx=0;entryDy=0;entryPerimeter=0;exitX=0;exitY=0.5;exitDx=0;exitDy=0;exitPerimeter=0;" edge="1" parent="1" source="KK_OaHmrvpVo3a35yFaE-15" target="KK_OaHmrvpVo3a35yFaE-32">
          <mxGeometry width="100" relative="1" as="geometry">
            <mxPoint x="-55" y="490" as="sourcePoint" />
            <mxPoint x="-55" y="800" as="targetPoint" />
          </mxGeometry>
        </mxCell>
        <mxCell id="KK_OaHmrvpVo3a35yFaE-74" value="&lt;span style=&quot;font-size: 18px; background-color: rgb(251, 251, 251);&quot;&gt;POST /movies&lt;/span&gt;" style="edgeLabel;html=1;align=center;verticalAlign=middle;resizable=0;points=[];" vertex="1" connectable="0" parent="KK_OaHmrvpVo3a35yFaE-69">
          <mxGeometry x="-0.6392" y="-2" relative="1" as="geometry">
            <mxPoint x="6" y="22" as="offset" />
          </mxGeometry>
        </mxCell>
        <mxCell id="KK_OaHmrvpVo3a35yFaE-70" value="" style="edgeStyle=orthogonalEdgeStyle;html=1;endArrow=block;elbow=vertical;startArrow=block;startFill=1;endFill=1;strokeColor=#545B64;rounded=0;entryX=1;entryY=0.75;entryDx=0;entryDy=0;entryPerimeter=0;exitX=0;exitY=0.5;exitDx=0;exitDy=0;exitPerimeter=0;" edge="1" parent="1" source="KK_OaHmrvpVo3a35yFaE-34" target="KK_OaHmrvpVo3a35yFaE-32">
          <mxGeometry width="100" relative="1" as="geometry">
            <mxPoint x="532" y="840" as="sourcePoint" />
            <mxPoint x="20" y="901" as="targetPoint" />
          </mxGeometry>
        </mxCell>
        <mxCell id="KK_OaHmrvpVo3a35yFaE-73" value="&lt;span style=&quot;font-size: 18px; background-color: rgb(251, 251, 251);&quot;&gt;GET /movies/download/{id}&lt;/span&gt;" style="edgeLabel;html=1;align=center;verticalAlign=middle;resizable=0;points=[];" vertex="1" connectable="0" parent="KK_OaHmrvpVo3a35yFaE-70">
          <mxGeometry x="-0.4975" y="3" relative="1" as="geometry">
            <mxPoint x="53" y="17" as="offset" />
          </mxGeometry>
        </mxCell>
        <mxCell id="KK_OaHmrvpVo3a35yFaE-77" value="" style="group" vertex="1" connectable="0" parent="1">
          <mxGeometry x="920" y="740" width="110" height="118" as="geometry" />
        </mxCell>
        <mxCell id="KK_OaHmrvpVo3a35yFaE-29" value="" style="sketch=0;points=[[0,0,0],[0.25,0,0],[0.5,0,0],[0.75,0,0],[1,0,0],[0,1,0],[0.25,1,0],[0.5,1,0],[0.75,1,0],[1,1,0],[0,0.25,0],[0,0.5,0],[0,0.75,0],[1,0.25,0],[1,0.5,0],[1,0.75,0]];outlineConnect=0;fontColor=#232F3E;fillColor=#C925D1;strokeColor=#ffffff;dashed=0;verticalLabelPosition=bottom;verticalAlign=top;align=center;html=1;fontSize=12;fontStyle=0;aspect=fixed;shape=mxgraph.aws4.resourceIcon;resIcon=mxgraph.aws4.dynamodb;" vertex="1" parent="KK_OaHmrvpVo3a35yFaE-77">
          <mxGeometry x="16" width="78" height="78" as="geometry" />
        </mxCell>
        <mxCell id="KK_OaHmrvpVo3a35yFaE-76" value="&lt;font style=&quot;font-size: 18px;&quot;&gt;DynamoDB&lt;/font&gt;" style="text;html=1;align=center;verticalAlign=middle;resizable=0;points=[];autosize=1;strokeColor=none;fillColor=none;" vertex="1" parent="KK_OaHmrvpVo3a35yFaE-77">
          <mxGeometry y="78" width="110" height="40" as="geometry" />
        </mxCell>
        <mxCell id="KK_OaHmrvpVo3a35yFaE-82" value="&lt;font style=&quot;font-size: 18px;&quot;&gt;AWS Cloud&lt;/font&gt;" style="points=[[0,0],[0.25,0],[0.5,0],[0.75,0],[1,0],[1,0.25],[1,0.5],[1,0.75],[1,1],[0.75,1],[0.5,1],[0.25,1],[0,1],[0,0.75],[0,0.5],[0,0.25]];outlineConnect=0;gradientColor=none;html=1;whiteSpace=wrap;fontSize=12;fontStyle=0;container=1;pointerEvents=0;collapsible=0;recursiveResize=0;shape=mxgraph.aws4.group;grIcon=mxgraph.aws4.group_aws_cloud_alt;strokeColor=#232F3E;fillColor=none;verticalAlign=top;align=left;spacingLeft=30;fontColor=#232F3E;dashed=0;" vertex="1" parent="1">
          <mxGeometry x="-160" y="290" width="1230" height="870" as="geometry" />
        </mxCell>
      </root>
    </mxGraphModel>
  </diagram>
</mxfile>
